# xmcd
#
# Track frame offsets:
#	150
#	9058
#	21283
#	31925
#	49620
#	60822
#	70340
#	85402
#	94372
#	107856
#	124862
#	146194
#	160142
#	179670
#	196966
#	216308
#	237962
#	256521
#
# Disc length: 3673 seconds
#
# Revision: 1
# Processed by: cddbd v1.5.2PL0 Copyright (c) Steve Scherf et al.
# Submitted via: audiograbber 1.83.01
#
DISCID=f50e5712
DTITLE=Flying Burrito Brothers - Devils in disguise
DYEAR=1971
DGENRE=Country-Rock
TTITLE0=Six Days On The Road
TTITLE1=One Hundred Years From Now
TTITLE2=My Uncle
TTITLE3=Four Days Of Rain
TTITLE4=She Made Me Lose My Blues
TTITLE5=Shenandoah Valley Breakdown
TTITLE6=Why Are You Crying
TTITLE7=Dixie Breakdown
TTITLE8=Can't You Hear Me Calling
TTITLE9=White Line Fever
TTITLE10=Colorado
TTITLE11=Steel Guitar Rag
TTITLE12=Christine's Tune
TTITLE13=Do Right Woman
TTITLE14=Dark End Of The Street
TTITLE15=Tried So Hard
TTITLE16=Hot Burrito #2
TTITLE17=Wake Up Little Suzie
EXTD=Live broadcast by WMMR-FM, Philadelphia, Pa, USA, 07/22/1971
EXTT0=
EXTT1=
EXTT2=
EXTT3=
EXTT4=
EXTT5=
EXTT6=
EXTT7=
EXTT8=
EXTT9=
EXTT10=
EXTT11=
EXTT12=
EXTT13=
EXTT14=
EXTT15=
EXTT16=
EXTT17=
PLAYORDER=
